<?xml version="1.0" standalone="no"?>
<!DOCTYPE svg PUBLIC "-//W3C//DTD SVG 20010904//EN"
 "http://www.w3.org/TR/2001/REC-SVG-20010904/DTD/svg10.dtd">
<svg version="1.0" xmlns="http://www.w3.org/2000/svg"
 width="700.000000pt" height="700.000000pt" viewBox="0 0 700.000000 700.000000"
 preserveAspectRatio="xMidYMid meet">
<metadata>
Created by potrace 1.11, written by Peter Selinger 2001-2013
</metadata>
<g transform="translate(0.000000,700.000000) scale(0.100000,-0.100000)"
fill="#000000" stroke="none">
<path d="M3278 6995 c-2 -1 -41 -5 -88 -9 -87 -7 -105 -9 -225 -27 -116 -18
-123 -19 -192 -35 -184 -42 -248 -59 -369 -99 -264 -88 -538 -216 -759 -356
-346 -217 -655 -497 -910 -824 -238 -304 -432 -668 -559 -1047 -31 -94 -79
-267 -91 -329 -3 -13 -11 -58 -20 -99 -29 -147 -36 -200 -52 -370 -15 -165 -8
-592 12 -711 2 -13 6 -46 9 -74 9 -78 23 -156 51 -285 23 -107 88 -333 114
-395 5 -11 25 -65 46 -120 50 -132 181 -398 250 -508 30 -49 55 -90 55 -93 0
-3 4 -10 10 -17 5 -7 46 -64 91 -126 188 -267 410 -501 679 -716 92 -74 370
-265 386 -265 4 0 15 -6 23 -14 50 -43 425 -217 599 -278 292 -101 516 -149
882 -188 122 -13 570 -4 705 14 346 47 653 129 942 252 952 407 1679 1214
1981 2199 36 117 92 354 106 445 9 63 25 174 32 225 9 75 12 538 4 630 -13
130 -21 202 -25 227 -3 13 -8 43 -11 68 -9 67 -70 335 -94 412 -11 37 -21 70
-21 73 0 2 -16 49 -35 102 -222 615 -578 1125 -1074 1541 -66 56 -304 230
-351 257 -235 137 -500 275 -527 275 -4 0 -26 8 -48 19 -96 46 -391 136 -562
172 -54 11 -106 22 -117 25 -11 2 -38 6 -60 9 -22 3 -51 7 -65 10 -13 2 -52 7
-86 11 -33 3 -74 8 -90 10 -32 5 -540 14 -546 9z"/>
</g>
</svg>
